<?xml version="1.0" encoding="UTF-8" standalone="no"?>
<svg
   xml:space="preserve"
   width="740.93652"
   height="158"
   data-id="lg_V1Uzu6gO1eJdAlXbEa"
   data-version="1"
   viewBox="0 0 740.93652 158"
   version="1.1"
   id="svg6"
   sodipodi:docname="icon-no-background.svg"
   inkscape:version="1.3.2 (091e20ef0f, 2023-11-25, custom)"
   xmlns:inkscape="http://www.inkscape.org/namespaces/inkscape"
   xmlns:sodipodi="http://sodipodi.sourceforge.net/DTD/sodipodi-0.dtd"
   xmlns="http://www.w3.org/2000/svg"
   xmlns:svg="http://www.w3.org/2000/svg"><defs
     id="defs6" /><sodipodi:namedview
     id="namedview6"
     pagecolor="#ffffff"
     bordercolor="#000000"
     borderopacity="0.25"
     inkscape:showpageshadow="2"
     inkscape:pageopacity="0.0"
     inkscape:pagecheckerboard="0"
     inkscape:deskcolor="#d1d1d1"
     inkscape:export-bgcolor="#ffffffff"
     inkscape:zoom="0.86866667"
     inkscape:cx="750"
     inkscape:cy="79.43208"
     inkscape:window-width="2560"
     inkscape:window-height="1350"
     inkscape:window-x="0"
     inkscape:window-y="0"
     inkscape:window-maximized="1"
     inkscape:current-layer="svg6" /><path
     fill="#5ebc67"
     stroke="#5ebc67"
     stroke-width="5.45552"
     d="M 184.55974,18.823669 V 139.17633"
     id="path1" /><g
     id="g6"
     transform="matrix(0.97422617,0,0,0.98636767,-362.64206,0.09074582)"
     inkscape:export-filename="../png/icon-white-background.png"
     inkscape:export-xdpi="300"
     inkscape:export-ydpi="300"><path
       fill="#5ebc67"
       d="m 515.696,104.983 -32.76,-17.64 c 2.16,-4.32 3.24,-9.18 3.24,-14.4 0,-8.46 -3.06,-16.02 -8.28,-21.96 l 23.4,-18.36 c 9.9,11.16 32.04,1.44 26.28,-15.84 -6.48,-19.8 -36.36,-10.08 -29.88,9.72 0.36,1.26 0.9,2.52 1.62,3.6 l -23.58,18.72 a 33.48,33.48 0 0 0 -28.8,-8.64 l -5.4,-23.76 c 2.7,-1.26 4.68,-3.96 4.68,-7.74 0,-11.7 -17.64,-11.7 -17.64,0 0,6.3 5.22,9.18 9.9,8.64 l 5.4,23.58 c -11.88,3.42 -21.06,13.14 -23.58,25.38 l -18.18,-6.3 c 0.36,-1.44 0.54,-2.88 0.54,-4.68 0,-20.34 -30.42,-20.34 -30.42,0 0,17.28 22.14,19.8 28.62,7.56 l 18.9,6.48 c -0.18,1.08 -0.18,2.34 -0.18,3.6 0,8.46 3.24,16.2 8.46,22.14 l -21.78,9.9 c -5.04,-9.72 -23.04,-7.92 -23.04,6.12 0,16.2 24.3,16.2 24.3,0 0,-1.08 -0.18,-1.98 -0.18,-2.88 l 23.22,-10.62 c 5.94,5.4 13.86,8.82 22.5,8.82 0.9,0 1.98,0 2.88,-0.18 l 3.6,29.16 c -2.7,0.36 -5.22,1.8 -7.56,4.68 -10.26,12.6 8.82,27.9 19.08,15.3 7.02,-8.82 0,-18.9 -8.28,-19.98 l -3.6,-29.52 c 9.54,-1.8 17.64,-7.56 22.5,-15.48 l 32.76,17.46 c -0.18,0.9 -0.36,1.98 -0.36,3.06 0,13.5 20.34,13.5 20.34,0 -0.18,-10.98 -13.68,-12.96 -18.72,-5.94"
       id="path3" /><path
       fill="#ffffff"
       fill-rule="evenodd"
       d="m 446.223,86.653 c -6.176,-1.828 -23.988,-9.648 -3.8,-35.64 10.916,7.408 15.12,13.928 15.9,19.312 -5.22,1.872 -8.82,5.508 -8.368,12.088 -2.844,-6.76 -5.076,-16.12 -6.032,-21.948 -0.48,6.812 0.524,18.928 2.3,26.192"
       id="path4" /><path
       fill="#ffffff"
       fill-rule="evenodd"
       d="m 453.21,88.29 c -1.503,-4.177 -4.623,-17.76 18.709,-17.013 0.684,21.34 -10.616,20.552 -15.752,19.112 a 38.8,38.8 0 0 1 8.32,-11.02 43.6,43.6 0 0 0 -11.276,8.92"
       id="path5" /></g><path
     d="m 280.36403,67.671516 v 28.300509 q 0,1.35122 -0.49684,2.503699 -0.47736,1.172926 -1.31127,2.006846 -0.85535,0.85535 -2.00685,1.33173 -1.17294,0.47736 -2.52513,0.47736 h -45.27107 q -1.74967,0 -3.73703,-0.39748 -2.00686,-0.41695 -3.97474,-1.29179 -1.9484,-0.87483 -3.73606,-2.245526 -1.78863,-1.37167 -3.1603,-3.3191 -1.3707,-1.96788 -2.20559,-4.551459 -0.81541,-2.583578 -0.81541,-5.802335 V 50.679519 q 0,-1.729205 0.41794,-3.736057 0.39747,-2.006852 1.27133,-3.955252 0.87385,-1.9484 2.26599,-3.736057 1.41064,-1.788631 3.35904,-3.15933 1.96788,-1.391158 4.51054,-2.206563 2.5641,-0.814432 5.80331,-0.814432 h 51.03542 v 12.539903 h -51.03542 q -2.46472,0 -3.776,1.312247 -1.29179,1.291789 -1.29179,3.85491 V 84.68397 q 0,2.404326 1.33174,3.736057 1.31127,1.331732 3.73605,1.331732 h 39.05178 V 74.011609 H 234.39641 V 61.35188 h 39.62753 q 1.35219,0 2.52318,0.516326 1.15345,0.496842 2.00685,1.371674 0.83586,0.874831 1.31322,2.006852 0.49684,1.132994 0.49684,2.425758 M 337.73857,50.084283 V 62.64367 h -28.24108 q -2.5641,0 -3.87537,1.272306 -1.29179,1.291788 -1.29179,3.736057 V 102.27217 H 291.76997 V 67.652032 q 0,-3.219731 0.8154,-5.782852 0.83392,-2.564094 2.20559,-4.510546 1.37168,-1.967884 3.16031,-3.339557 1.78863,-1.371674 3.73605,-2.245531 1.96789,-0.855348 3.95526,-1.272305 2.00685,-0.416958 3.75554,-0.416958 z m 64.37124,17.290103 q 0,2.603061 -0.9138,5.624055 -0.9138,3.020994 -2.96157,5.604573 -2.06628,2.583579 -5.36589,4.311809 -3.29864,1.749663 -8.02838,1.749663 h -22.656 V 72.740279 h 22.656 q 2.54266,0 3.95525,-1.57041 1.39018,-1.570412 1.39018,-3.894852 0,-2.464726 -1.56944,-3.855884 -1.57041,-1.410642 -3.77599,-1.410642 h -22.656 q -2.54364,0 -3.95525,1.569436 -1.39116,1.570411 -1.39116,3.8968 v 17.526832 q 0,2.503694 1.57041,3.8968 1.56846,1.409668 3.87537,1.409668 h 22.55663 v 11.964143 h -22.656 q -2.60404,0 -5.62406,-0.9138 -3.02002,-0.9138 -5.60457,-2.961555 -2.56409,-2.067261 -4.31278,-5.3659 -1.72921,-3.298639 -1.72921,-8.029355 V 67.374386 q 0,-2.604038 0.91478,-5.625031 0.91477,-3.020995 2.96156,-5.6036 2.0468,-2.582603 5.36492,-4.312783 3.29962,-1.748689 8.02936,-1.748689 h 22.656 q 2.60306,0 5.62405,0.9138 3.00054,0.935232 5.58412,2.981052 2.58357,2.04582 4.33324,5.346409 1.72823,3.318126 1.72823,8.048842 m 64.62843,0 q 0,2.603061 -0.93329,5.624055 -0.9138,3.02002 -2.96156,5.604573 -2.04582,2.583579 -5.3659,4.311809 -3.29864,1.749663 -8.02838,1.749663 H 426.8126 V 72.740279 h 22.63651 q 2.56215,0 3.95525,-1.57041 1.41064,-1.570412 1.41064,-3.894852 0,-2.464726 -1.57041,-3.855884 -1.56943,-1.410642 -3.79548,-1.410642 H 426.8126 q -2.56312,0 -3.97474,1.569436 -1.39116,1.570411 -1.39116,3.8968 v 17.526832 q 0,2.503694 1.57042,3.8968 1.56846,1.409668 3.87536,1.409668 h 22.55663 V 102.27217 H 426.8126 q -2.62352,0 -5.62406,-0.9138 -3.02002,-0.91477 -5.60457,-2.961555 -2.58358,-2.067261 -4.33227,-5.3659 -1.7292,-3.298639 -1.7292,-8.029355 V 67.374386 q 0,-2.604038 0.91477,-5.625031 0.91477,-3.020995 2.96157,-5.6036 2.0653,-2.583578 5.36492,-4.312783 3.3191,-1.748689 8.04884,-1.748689 h 22.63651 q 2.60306,0 5.62406,0.9138 3.02002,0.935232 5.60457,2.981052 2.58455,2.04582 4.31278,5.346409 1.74869,3.318126 1.74869,8.048842 m 66.25924,5.94262 V 102.27217 H 520.43809 V 73.31603 q 0,-2.464726 -0.83489,-4.431635 -0.85437,-1.9484 -2.30496,-3.338584 -1.43207,-1.411615 -3.39996,-2.166621 -1.94645,-0.735521 -4.21146,-0.735521 h -21.98088 v 39.628501 h -12.5399 V 56.324034 q 0,-1.311273 0.47736,-2.444268 0.47736,-1.132994 1.35121,-1.987368 0.87386,-0.834888 2.02634,-1.311273 1.15345,-0.496842 2.46473,-0.496842 h 28.30051 q 2.36438,0 4.9879,0.53581 2.62352,0.536784 5.2071,1.709721 2.58358,1.192421 4.92848,3.000536 2.3449,1.808115 4.15399,4.393642 1.80811,2.582604 2.88168,5.962104 1.05214,3.377551 1.05214,7.629934 m 78.95891,8.605109 q 0,3.716573 -0.95472,6.697625 -0.93328,2.96157 -2.48421,5.22658 -1.52949,2.26599 -3.61623,3.85589 -2.06725,1.609366 -4.2933,2.622536 -2.22605,1.01317 -4.51055,1.49053 -2.30593,0.47736 -4.33324,0.47736 H 543.35225 V 89.751759 h 48.41189 q 3.63669,0 5.62406,-2.126679 2.00685,-2.126679 2.00685,-5.703941 0,-1.729204 -0.53581,-3.179789 -0.51633,-1.451558 -1.51001,-2.523178 -0.99368,-1.054084 -2.42576,-1.630811 -1.41064,-0.574777 -3.15933,-0.574777 h -28.8558 q -3.04145,0 -6.57877,-1.094026 -3.51687,-1.093053 -6.53883,-3.497378 -3.02002,-2.425758 -5.02688,-6.32061 -1.98736,-3.91531 -1.98736,-9.55885 0,-5.663999 1.98736,-9.539367 2.00686,-3.895825 5.02688,-6.319635 3.02002,-2.445242 6.53883,-3.538294 3.53634,-1.07162 6.57779,-1.07162 h 42.72842 v 12.538927 h -42.72842 q -3.57726,0 -5.58411,2.186105 -2.00685,2.16662 -2.00685,5.743883 0,3.617204 2.00685,5.723425 2.00685,2.086736 5.58411,2.086736 h 28.95615 q 2.02634,0.05943 4.2933,0.556269 2.28547,0.516326 4.53003,1.570411 2.24651,1.072593 4.27382,2.682947 2.02731,1.610352 3.59674,3.894851 1.54898,2.265989 2.48421,5.207099 0.91478,2.942083 0.91478,6.657683 m 66.57679,-31.836856 v 57.215736 q 0,3.23921 -0.8349,5.82279 -0.8154,2.58358 -2.1666,4.53198 -1.3512,1.9484 -3.1398,3.33858 -1.7887,1.3707 -3.7361,2.24554 -1.9484,0.85437 -3.9357,1.2723 -1.9874,0.41696 -3.7751,0.41696 h -22.6365 v -12.56036 h 22.6365 q 2.5232,0 3.776,-1.31128 1.2519,-1.29178 1.2519,-3.75651 V 50.085257 Z m -17.5882,39.647992 v 12.539894 h -22.6365 q -2.7024,0 -5.7634,-0.9138 -3.0609,-0.91477 -5.72338,-3.020015 -2.66346,-2.08771 -4.39364,-5.44577 -1.74771,-3.359046 -1.74771,-8.228098 V 50.084283 h 12.56033 v 34.580203 q 0,2.445242 1.3113,3.755541 1.2918,1.312248 3.8559,1.312248 z m 79.9916,-5.067789 q 0,3.218757 -0.8349,5.802335 -0.8144,2.583583 -2.1656,4.551463 -1.3522,1.9484 -3.1409,3.3191 -1.7886,1.370695 -3.736,2.245525 -1.9475,0.87483 -3.9553,1.29179 -2.0068,0.39747 -3.7955,0.39747 h -33.984 V 89.732275 h 33.8847 q 2.5641,0 3.8753,-1.312247 1.2918,-1.311273 1.2918,-3.755541 -0.2387,-5.02882 -5.0678,-5.02882 h -19.4557 q -4.154,0 -7.0552,-1.450584 -2.8816,-1.450585 -4.6907,-3.617205 -1.8286,-2.165646 -2.6236,-4.689798 -0.7949,-2.503694 -0.7949,-4.670315 0,-4.213415 1.51,-7.074641 1.4905,-2.881683 3.7565,-4.670314 2.266,-1.788632 4.9295,-2.583579 2.643,-0.794947 4.9684,-0.794947 h 30.8432 V 62.64367 h -30.7438 q -0.9742,0 -1.5305,0.219195 -0.5368,0.218221 -0.8154,0.575753 -0.2582,0.358505 -0.3176,0.775463 -0.039,0.397473 -0.039,0.794947 0.039,0.775463 0.2777,1.211905 0.2581,0.418906 0.6157,0.616668 0.3575,0.197763 0.8154,0.218221 0.4579,0.02046 0.8943,0.01948 h 19.4548 q 4.83,0 8.2086,1.749663 3.3785,1.729205 5.4652,4.37221 2.0673,2.623521 3.0006,5.703941 0.9547,3.099904 0.9547,5.763367"
     id="path2"
     style="stroke-width:0.9742" /></svg>
